<?xml version="1.0" encoding="utf-8"?>
<!-- Generator: Adobe Illustrator 15.0.2, SVG Export Plug-In . SVG Version: 6.00 Build 0)  -->
<!DOCTYPE svg PUBLIC "-//W3C//DTD SVG 1.1//EN" "http://www.w3.org/Graphics/SVG/1.1/DTD/svg11.dtd">
<svg version="1.1" id="Ebene_1" xmlns="http://www.w3.org/2000/svg" xmlns:xlink="http://www.w3.org/1999/xlink" x="0px" y="0px"
	 width="841.89px" height="595.28px" viewBox="0 0 841.89 595.28" enable-background="new 0 0 841.89 595.28" xml:space="preserve">
<g>
	<g>
		<path fill="#09525A" d="M301.569,222.538l-0.01-0.01l0.001-0.001l-33.292-33.291l-33.301,33.301
			c-18.388,18.389-18.39,48.202-0.01,66.592c0,0,0.008,0.007,0.01,0.009c0.002-0.002,0.002-0.002,0.002-0.002
			c18.394-18.388,48.21-18.388,66.599,0.002C319.959,270.747,319.962,240.929,301.569,222.538z"/>
		<path fill="#047A85" d="M234.977,289.146l-0.009-0.008c-0.001,0.001-0.001,0.001-0.001,0.001
			c-9.201,9.195-21.246,13.79-33.301,13.794c-12.052,0-24.106-4.599-33.3-13.794c-18.391,18.391-18.391,48.21,0,66.601l0.005,0.006
			l0,0l33.29,33.291l33.062-33.057c0.08-0.082,0.166-0.158,0.246-0.238C253.356,337.353,253.361,307.539,234.977,289.146z"/>
		<path fill="#8AB6BA" d="M234.968,222.536c-18.393-18.394-48.211-18.394-66.603-0.002c-0.011,0.012-0.024,0.024-0.036,0.036
			l-33.266,33.266l33.266,33.268c0.012,0.011,0.025,0.025,0.036,0.036c9.194,9.195,21.249,13.794,33.3,13.794
			c12.055-0.004,24.1-4.599,33.298-13.791c0,0,0.003-0.003,0.004-0.004c-0.001-0.002-0.004-0.004-0.004-0.004
			C216.578,270.738,216.58,240.925,234.968,222.536z"/>
		<path fill="#C5D1D6" d="M334.856,322.425l-33.29-33.292l-0.001,0.001c-18.389-18.388-48.204-18.388-66.591-0.001
			c0,0-0.003,0.001-0.005,0.004l0.009,0.008c18.384,18.394,18.379,48.207-0.009,66.596c18.392,18.391,48.209,18.391,66.603-0.002
			c0.188-0.188,0.36-0.381,0.542-0.572L334.856,322.425z"/>
	</g>
	<g>
		<g>
			<path fill="#8AB6BA" d="M393.786,321.372v-35.805l-23.285-37.56c-0.779-1.325-1.17-2.3-1.17-2.925c0-1.559,2.496-2.34,7.489-2.34
				h5.031c3.821,0,6.161,0.742,7.021,2.223l14.275,25.04l14.392-25.04c0.857-1.481,3.197-2.223,7.02-2.223h4.213
				c4.914,0,7.371,0.781,7.371,2.34c0,0.781-0.352,1.755-1.053,2.925l-23.285,37.911v35.454c0,2.497-2.34,3.744-7.021,3.744h-3.978
				C396.125,325.116,393.786,323.869,393.786,321.372z"/>
			<path fill="#8AB6BA" d="M441.29,322.542c0-0.311,0.155-1.013,0.468-2.106l25.742-75.236c0.623-1.638,2.847-2.457,6.67-2.457
				h6.084c3.821,0,6.045,0.819,6.67,2.457l25.742,75.236c0.233,0.781,0.351,1.483,0.351,2.106c0,1.717-1.95,2.574-5.851,2.574
				h-5.148c-3.822,0-6.008-0.819-6.553-2.457l-4.68-14.275h-27.614l-4.681,14.275c-0.547,1.638-2.34,2.457-5.383,2.457h-4.68
				C443.668,325.116,441.29,324.259,441.29,322.542z M468.202,292.939h17.552l-6.67-20.828l-1.756-7.489h-0.467
				c-0.703,3.667-1.287,6.163-1.756,7.489L468.202,292.939z"/>
			<path fill="#8AB6BA" d="M526.939,320.202v-72.546c0-3.119,1.56-4.68,4.68-4.68h26.211c12.09,0,21.354,3.53,27.789,10.589
				c6.436,7.061,9.653,17.182,9.653,30.364c0,13.184-3.218,23.304-9.653,30.364c-6.436,7.061-15.699,10.589-27.789,10.589h-26.211
				C528.499,324.882,526.939,323.322,526.939,320.202z M545.076,309.554h12.754c6.239,0,10.958-2.183,14.158-6.553
				c3.197-4.367,4.797-10.724,4.797-19.072c0-8.346-1.6-14.703-4.797-19.072c-3.2-4.368-7.919-6.553-14.158-6.553h-12.754V309.554z"
				/>
			<path fill="#8AB6BA" d="M626.747,321.372v-63.068h-18.604c-2.34,0-3.51-1.949-3.51-5.851v-3.627c0-3.9,1.17-5.851,3.51-5.851
				h55.346c2.34,0,3.51,1.951,3.51,5.851v3.627c0,3.902-1.17,5.851-3.51,5.851h-18.605v63.068c0,2.497-2.34,3.744-7.02,3.744h-4.096
				C629.088,325.116,626.747,323.869,626.747,321.372z"/>
		</g>
	</g>
</g>
</svg>
