<?xml version="1.0" encoding="utf-8"?>
<!-- Generator: Adobe Illustrator 15.0.2, SVG Export Plug-In . SVG Version: 6.00 Build 0)  -->
<!DOCTYPE svg PUBLIC "-//W3C//DTD SVG 1.1//EN" "http://www.w3.org/Graphics/SVG/1.1/DTD/svg11.dtd">
<svg version="1.1" id="Ebene_1" xmlns="http://www.w3.org/2000/svg" xmlns:xlink="http://www.w3.org/1999/xlink" x="0px" y="0px"
	 width="841.89px" height="841.89px" viewBox="0 0 841.89 841.89" enable-background="new 0 0 841.89 841.89" xml:space="preserve">
<g>
	<path fill="#09525A" d="M675.578,163.333l-0.038-0.038l0.008-0.006L546.771,34.516l-128.81,128.811
		c-71.126,71.13-71.133,186.45-0.038,257.585c0,0,0.034,0.026,0.038,0.036c0.012-0.009,0.012-0.009,0.012-0.009
		c71.143-71.125,186.476-71.125,257.605,0.009C746.715,349.813,746.73,234.473,675.578,163.333z"/>
	<path fill="#047A85" d="M417.995,420.979l-0.034-0.032c-0.004,0.006-0.004,0.006-0.004,0.006
		c-35.591,35.57-82.182,53.347-128.811,53.364c-46.622,0-93.247-17.794-128.812-53.364c-71.137,71.143-71.137,186.485,0,257.622
		l0.022,0.023v0.003l128.766,128.773l127.89-127.87c0.31-0.315,0.639-0.608,0.948-0.918
		C489.089,607.455,489.107,492.134,417.995,420.979z"/>
	<path fill="#8AB6BA" d="M417.961,163.327c-71.148-71.148-186.485-71.148-257.626-0.009c-0.045,0.047-0.091,0.094-0.14,0.138
		L31.516,292.13l128.679,128.685c0.049,0.043,0.094,0.096,0.14,0.138c35.564,35.57,82.19,53.364,128.812,53.364
		c46.629-0.018,93.22-17.794,128.796-53.353c0,0,0.015-0.011,0.019-0.017c-0.004-0.009-0.019-0.015-0.019-0.015
		C346.828,349.776,346.835,234.457,417.961,163.327z"/>
	<path fill="#C5D1D6" d="M804.336,549.711L675.57,420.932l-0.008,0.006c-71.129-71.125-186.455-71.125-257.582-0.006
		c0,0-0.008,0.006-0.02,0.015l0.034,0.032c71.112,71.154,71.094,186.476-0.034,257.607c71.139,71.135,186.479,71.135,257.624-0.012
		c0.726-0.725,1.398-1.475,2.101-2.211L804.336,549.711z"/>
</g>
</svg>
