<?xml version="1.0" encoding="utf-8"?>
<!-- Generator: Adobe Illustrator 15.0.2, SVG Export Plug-In . SVG Version: 6.00 Build 0)  -->
<!DOCTYPE svg PUBLIC "-//W3C//DTD SVG 1.1//EN" "http://www.w3.org/Graphics/SVG/1.1/DTD/svg11.dtd">
<svg version="1.1" id="Ebene_1" xmlns="http://www.w3.org/2000/svg" xmlns:xlink="http://www.w3.org/1999/xlink" x="0px" y="0px"
	 width="841.89px" height="595.28px" viewBox="0 0 841.89 595.28" enable-background="new 0 0 841.89 595.28" xml:space="preserve">
<g>
	<g>
		<path fill="#8AB6BA" d="M244.668,287.778v-24.188l-15.73-25.374c-0.526-0.896-0.791-1.554-0.791-1.976
			c0-1.054,1.686-1.581,5.059-1.581h3.399c2.581,0,4.162,0.501,4.743,1.502l9.644,16.916l9.723-16.916
			c0.579-1,2.16-1.502,4.743-1.502h2.846c3.32,0,4.98,0.527,4.98,1.581c0,0.527-0.237,1.186-0.711,1.976l-15.73,25.611v23.951
			c0,1.688-1.581,2.53-4.743,2.53h-2.688C246.25,290.308,244.668,289.465,244.668,287.778z"/>
		<path fill="#8AB6BA" d="M276.761,288.568c0-0.21,0.105-0.684,0.316-1.423l17.39-50.827c0.421-1.107,1.923-1.66,4.506-1.66h4.11
			c2.582,0,4.083,0.553,4.506,1.66l17.39,50.827c0.158,0.527,0.237,1.002,0.237,1.423c0,1.16-1.318,1.739-3.953,1.739h-3.478
			c-2.583,0-4.059-0.554-4.426-1.66l-3.162-9.644h-18.655l-3.162,9.644c-0.37,1.106-1.581,1.66-3.636,1.66h-3.162
			C278.368,290.308,276.761,289.729,276.761,288.568z M294.942,268.569h11.857l-4.506-14.07l-1.186-5.059h-0.316
			c-0.474,2.478-0.87,4.164-1.186,5.059L294.942,268.569z"/>
		<path fill="#8AB6BA" d="M334.623,286.987v-49.009c0-2.107,1.054-3.162,3.162-3.162h17.707c8.168,0,14.426,2.385,18.774,7.154
			c4.348,4.77,6.521,11.607,6.521,20.513c0,8.906-2.173,15.744-6.521,20.513c-4.348,4.77-10.606,7.154-18.774,7.154h-17.707
			C335.677,290.149,334.623,289.096,334.623,286.987z M346.875,279.794h8.616c4.215,0,7.403-1.475,9.565-4.427
			c2.16-2.951,3.241-7.245,3.241-12.885c0-5.638-1.081-9.933-3.241-12.885c-2.162-2.951-5.35-4.427-9.565-4.427h-8.616V279.794z"/>
		<path fill="#8AB6BA" d="M402.05,287.778v-42.606h-12.568c-1.581,0-2.372-1.316-2.372-3.952v-2.451
			c0-2.634,0.791-3.952,2.372-3.952h37.39c1.58,0,2.371,1.318,2.371,3.952v2.451c0,2.636-0.791,3.952-2.371,3.952h-12.569v42.606
			c0,1.688-1.581,2.53-4.743,2.53h-2.767C403.631,290.308,402.05,289.465,402.05,287.778z"/>
	</g>
	<g>
		<path fill="#047A85" d="M246.566,326.883v-1.69c0-2.014-1.319-3.021-3.957-3.021c-1.727,0-3.322,0.372-4.784,1.115
			c-0.503,0.265-0.78,0.396-0.827,0.396c-0.24,0-0.51-0.239-0.81-0.719c-0.3-0.479-0.45-0.84-0.45-1.079
			c0-0.504,0.702-1.013,2.104-1.529c1.403-0.516,3.087-0.773,5.054-0.773c1.966,0,3.573,0.498,4.82,1.493
			c1.247,0.995,1.871,2.38,1.871,4.154v8.058c0,1.438,0.06,2.481,0.18,3.129c0.167,0.888,0.252,1.355,0.252,1.403
			c0,0.287-0.229,0.498-0.684,0.629c-0.456,0.132-0.809,0.198-1.061,0.198s-0.426-0.024-0.521-0.072
			c-0.096-0.048-0.186-0.132-0.27-0.252c-0.084-0.119-0.15-0.233-0.198-0.342c-0.048-0.107-0.096-0.257-0.144-0.449
			c-0.048-0.191-0.09-0.342-0.126-0.449c-0.036-0.108-0.072-0.275-0.108-0.504c-0.036-0.228-0.066-0.378-0.09-0.449
			c-1.631,1.798-3.646,2.697-6.043,2.697c-1.847,0-3.333-0.455-4.46-1.367c-1.127-0.911-1.69-2.313-1.69-4.208
			s0.653-3.315,1.96-4.263s2.775-1.522,4.407-1.727C242.621,327.058,244.479,326.932,246.566,326.883z M237.861,333.25
			c0,1.967,1.019,2.949,3.057,2.949c1.175,0,2.188-0.216,3.04-0.647c0.851-0.432,1.72-1.043,2.608-1.834v-4.245
			c-2.998,0-4.928,0.168-5.791,0.504c-0.456,0.168-0.936,0.384-1.439,0.647C238.353,331.128,237.861,332.003,237.861,333.25z"/>
		<path fill="#047A85" d="M257.356,337.89v-12.625c0-1.463-0.06-2.506-0.18-3.13c-0.168-0.863-0.252-1.33-0.252-1.402
			c0-0.288,0.228-0.497,0.684-0.63c0.455-0.131,0.809-0.197,1.061-0.197s0.425,0.024,0.521,0.071
			c0.096,0.049,0.186,0.126,0.27,0.234c0.083,0.107,0.149,0.216,0.198,0.323c0.048,0.108,0.096,0.252,0.144,0.432
			c0.047,0.181,0.09,0.324,0.125,0.432c0.036,0.108,0.072,0.265,0.108,0.468c0.036,0.204,0.066,0.342,0.09,0.414
			c1.606-1.799,3.399-2.698,5.377-2.698c1.978,0,3.489,0.517,4.532,1.547c1.043,1.031,1.564,2.458,1.564,4.28v12.481
			c0,0.528-0.48,0.792-1.439,0.792h-0.144c-0.959,0-1.439-0.264-1.439-0.792v-12.193c0-1.103-0.318-1.96-0.953-2.572
			c-0.636-0.611-1.541-0.917-2.716-0.917c-1.727,0-3.237,0.84-4.532,2.518v13.165c0,0.528-0.48,0.792-1.438,0.792h-0.144
			C257.836,338.682,257.356,338.418,257.356,337.89z"/>
		<path fill="#047A85" d="M286.959,338.07c0-0.12,0.036-0.288,0.108-0.504l8.525-23.633c0.12-0.383,0.599-0.575,1.439-0.575h1.043
			c0.839,0,1.318,0.192,1.439,0.575l8.524,23.669c0.072,0.168,0.108,0.323,0.108,0.468c0,0.407-0.516,0.611-1.546,0.611h-0.288
			c-0.839,0-1.319-0.192-1.438-0.576l-2.123-5.898h-10.575l-2.05,5.898c-0.121,0.384-0.6,0.576-1.439,0.576h-0.18
			C287.475,338.682,286.959,338.478,286.959,338.07z M293.182,329.473h8.597l-3.776-10.719l-0.468-2.086l-0.576,2.086
			L293.182,329.473z"/>
		<path fill="#047A85" d="M313.073,332.998v-12.481c0-0.527,0.479-0.791,1.439-0.791h0.144c0.959,0,1.439,0.264,1.439,0.791v12.193
			c0,1.104,0.317,1.961,0.953,2.572c0.635,0.611,1.541,0.917,2.716,0.917c1.727,0,3.237-0.839,4.532-2.518v-13.165
			c0-0.527,0.479-0.791,1.438-0.791h0.144c0.959,0,1.439,0.264,1.439,0.791v12.77c0,1.438,0.06,2.481,0.18,3.129
			c0.167,0.888,0.252,1.355,0.252,1.403c0,0.287-0.229,0.498-0.684,0.629c-0.456,0.132-0.809,0.198-1.061,0.198
			s-0.426-0.024-0.521-0.072c-0.096-0.048-0.186-0.132-0.27-0.252c-0.084-0.119-0.15-0.233-0.198-0.342
			c-0.048-0.107-0.096-0.257-0.144-0.449c-0.048-0.191-0.09-0.342-0.125-0.449c-0.036-0.108-0.072-0.275-0.108-0.504
			c-0.036-0.228-0.066-0.378-0.09-0.449c-1.607,1.798-3.399,2.697-5.378,2.697c-1.978,0-3.489-0.516-4.532-1.547
			C313.595,336.248,313.073,334.82,313.073,332.998z"/>
		<path fill="#047A85" d="M333.432,341.522c0-1.966,1.354-3.429,4.064-4.388c-1.535-0.647-2.302-1.648-2.302-3.004
			c0-1.354,0.911-2.344,2.734-2.967c-1.056-0.504-1.865-1.229-2.428-2.177s-0.845-2.008-0.845-3.184c0-1.798,0.629-3.284,1.889-4.46
			c1.259-1.175,3.027-1.763,5.306-1.763c0.863,0,1.654,0.072,2.374,0.216h6.187c0.479,0,0.719,0.36,0.719,1.079v0.432
			c0,0.72-0.24,1.079-0.719,1.079h-2.518c0.792,0.96,1.187,2.099,1.187,3.417c0,1.775-0.635,3.25-1.906,4.425
			s-3.045,1.763-5.323,1.763h-0.36c-2.063,0.096-3.093,0.6-3.093,1.511c0,0.503,0.419,0.881,1.259,1.133
			c0.839,0.252,1.853,0.449,3.04,0.594c1.187,0.144,2.374,0.348,3.561,0.611s2.2,0.798,3.039,1.601
			c0.839,0.804,1.259,1.853,1.259,3.147c0,1.63-0.798,2.979-2.392,4.047c-1.595,1.066-3.741,1.601-6.438,1.601
			s-4.754-0.354-6.169-1.062C334.139,344.466,333.432,343.249,333.432,341.522z M336.561,341.199c0,1.631,1.798,2.446,5.396,2.446
			c1.606,0,2.907-0.276,3.902-0.828s1.493-1.235,1.493-2.05c0-0.647-0.276-1.128-0.827-1.438c-0.912-0.504-2.542-0.911-4.892-1.224
			c-0.624-0.096-1.115-0.18-1.475-0.251c-0.935,0.359-1.769,0.827-2.5,1.402S336.561,340.479,336.561,341.199z M337.82,325.786
			c0,2.41,1.349,3.615,4.046,3.615s4.047-1.205,4.047-3.615s-1.349-3.615-4.047-3.615S337.82,323.376,337.82,325.786z"/>
		<path fill="#047A85" d="M356.704,337.89v-12.625c0-1.463-0.061-2.506-0.18-3.13c-0.168-0.863-0.251-1.33-0.251-1.402
			c0-0.288,0.228-0.497,0.683-0.63c0.456-0.131,0.81-0.197,1.061-0.197c0.252,0,0.426,0.024,0.522,0.071
			c0.095,0.049,0.185,0.126,0.27,0.234c0.084,0.107,0.149,0.216,0.198,0.323c0.048,0.108,0.096,0.252,0.144,0.432
			c0.048,0.181,0.09,0.324,0.126,0.432c0.036,0.108,0.072,0.265,0.108,0.468c0.036,0.204,0.065,0.342,0.09,0.414
			c1.559-1.799,3.381-2.698,5.467-2.698c2.614,0,4.328,0.996,5.144,2.985c1.678-1.989,3.585-2.985,5.719-2.985
			c1.367,0,2.59,0.349,3.669,1.043c0.599,0.408,1.079,1.02,1.439,1.835s0.54,1.799,0.54,2.949v12.481
			c0,0.528-0.48,0.792-1.439,0.792h-0.144c-0.959,0-1.439-0.264-1.439-0.792v-12.193c0-1.079-0.294-1.93-0.881-2.554
			c-0.588-0.623-1.445-0.936-2.572-0.936c-1.487,0-2.962,0.827-4.424,2.482c0.023,0.168,0.036,0.419,0.036,0.755v12.445
			c0,0.528-0.48,0.792-1.439,0.792h-0.144c-0.959,0-1.438-0.264-1.438-0.792v-12.193c0-1.079-0.294-1.93-0.881-2.554
			c-0.588-0.623-1.355-0.936-2.302-0.936s-1.787,0.204-2.518,0.611c-0.732,0.408-1.265,0.827-1.601,1.259l-0.54,0.612v13.2
			c0,0.528-0.48,0.792-1.439,0.792h-0.144C357.183,338.682,356.704,338.418,356.704,337.89z"/>
		<path fill="#047A85" d="M390.083,336.487c-1.439-1.559-2.158-3.938-2.158-7.141c0-3.201,0.707-5.629,2.122-7.283
			c1.415-1.655,3.429-2.482,6.043-2.482c5.083,0,7.625,3.13,7.625,9.389c0,0.216-0.144,0.516-0.432,0.899s-0.54,0.575-0.755,0.575
			h-11.366c0.144,1.99,0.659,3.453,1.546,4.389c0.887,0.935,2.218,1.402,3.993,1.402c1.63,0,3.129-0.383,4.496-1.151
			c0.456-0.239,0.707-0.359,0.755-0.359c0.24,0,0.509,0.24,0.81,0.72c0.299,0.479,0.45,0.84,0.45,1.079
			c0,0.479-0.654,0.983-1.96,1.511c-1.307,0.527-2.812,0.791-4.514,0.791C393.74,338.825,391.522,338.046,390.083,336.487z
			 M400.515,327.854c0-3.789-1.439-5.684-4.316-5.684c-3.093,0-4.772,1.895-5.036,5.684H400.515z"/>
		<path fill="#047A85" d="M410.226,337.89v-12.625c0-1.463-0.06-2.506-0.18-3.13c-0.168-0.863-0.252-1.33-0.252-1.402
			c0-0.288,0.228-0.497,0.684-0.63c0.455-0.131,0.809-0.197,1.061-0.197s0.425,0.024,0.521,0.071
			c0.096,0.049,0.186,0.126,0.27,0.234c0.083,0.107,0.149,0.216,0.198,0.323c0.048,0.108,0.096,0.252,0.144,0.432
			c0.047,0.181,0.09,0.324,0.125,0.432c0.036,0.108,0.072,0.265,0.108,0.468c0.036,0.204,0.066,0.342,0.09,0.414
			c1.606-1.799,3.399-2.698,5.377-2.698c1.978,0,3.489,0.517,4.533,1.547c1.043,1.031,1.564,2.458,1.564,4.28v12.481
			c0,0.528-0.48,0.792-1.439,0.792h-0.144c-0.959,0-1.439-0.264-1.439-0.792v-12.193c0-1.103-0.318-1.96-0.953-2.572
			c-0.636-0.611-1.541-0.917-2.716-0.917c-1.727,0-3.237,0.84-4.532,2.518v13.165c0,0.528-0.48,0.792-1.438,0.792h-0.144
			C410.706,338.682,410.226,338.418,410.226,337.89z"/>
		<path fill="#047A85" d="M432.814,333.861v-11.475h-1.798c-0.479,0-0.72-0.359-0.72-1.079v-0.432c0-0.719,0.24-1.079,0.72-1.079
			h1.798l0.432-3.776c0.049-0.527,0.432-0.792,1.152-0.792h0.359c0.719,0,1.078,0.265,1.078,0.792v3.776h3.021
			c0.48,0,0.721,0.36,0.721,1.079v0.432c0,0.72-0.24,1.079-0.721,1.079h-3.021v11.187c0,1.775,0.648,2.662,1.943,2.662
			c0.407,0,0.755-0.029,1.043-0.09c0.287-0.06,0.455-0.09,0.504-0.09c0.215,0,0.395,0.222,0.539,0.665
			c0.144,0.444,0.216,0.786,0.216,1.025c0,0.72-0.876,1.079-2.626,1.079c-1.199,0-2.271-0.365-3.219-1.097
			C433.288,336.997,432.814,335.708,432.814,333.861z"/>
		<path fill="#047A85" d="M447.203,336.487c-1.439-1.559-2.158-3.938-2.158-7.141c0-3.201,0.707-5.629,2.122-7.283
			c1.415-1.655,3.429-2.482,6.043-2.482c5.083,0,7.626,3.13,7.626,9.389c0,0.216-0.145,0.516-0.432,0.899
			c-0.288,0.384-0.54,0.575-0.756,0.575h-11.366c0.144,1.99,0.659,3.453,1.547,4.389c0.887,0.935,2.218,1.402,3.992,1.402
			c1.631,0,3.13-0.383,4.496-1.151c0.455-0.239,0.707-0.359,0.756-0.359c0.239,0,0.509,0.24,0.809,0.72s0.45,0.84,0.45,1.079
			c0,0.479-0.653,0.983-1.961,1.511c-1.307,0.527-2.812,0.791-4.514,0.791C450.859,338.825,448.642,338.046,447.203,336.487z
			 M457.634,327.854c0-3.789-1.438-5.684-4.316-5.684c-3.093,0-4.771,1.895-5.035,5.684H457.634z"/>
		<path fill="#047A85" d="M478.819,336.128c-1.727,1.798-3.645,2.697-5.755,2.697s-3.795-0.887-5.054-2.662
			c-1.259-1.774-1.889-4.052-1.889-6.834v-0.323c0-2.95,0.671-5.258,2.015-6.925c1.343-1.666,3.021-2.5,5.036-2.5
			c2.014,0,3.813,0.611,5.396,1.835v-9.064c0-0.527,0.479-0.792,1.438-0.792h0.144c0.959,0,1.439,0.265,1.439,0.792v20.935
			c0,1.438,0.06,2.481,0.18,3.129c0.167,0.888,0.252,1.355,0.252,1.403c0,0.287-0.229,0.498-0.684,0.629
			c-0.456,0.132-0.81,0.198-1.062,0.198s-0.426-0.024-0.521-0.072s-0.186-0.132-0.27-0.252c-0.084-0.119-0.15-0.233-0.198-0.342
			c-0.048-0.107-0.096-0.257-0.144-0.449c-0.049-0.191-0.09-0.342-0.126-0.449c-0.036-0.108-0.072-0.275-0.108-0.504
			C478.874,336.35,478.844,336.199,478.819,336.128z M469.288,328.934c0,4.844,1.559,7.266,4.676,7.266
			c1.559,0,3.094-0.827,4.604-2.481v-9.856c-1.295-1.079-2.746-1.618-4.353-1.618H474c-1.535,0.024-2.704,0.611-3.507,1.763
			C469.689,325.156,469.288,326.8,469.288,328.934z"/>
		<path fill="#047A85" d="M500.293,337.53V314.51c0-0.72,0.359-1.079,1.079-1.079h7.266c3.357,0,6.049,1.001,8.075,3.003
			c2.026,2.003,3.04,5.204,3.04,9.604s-1.014,7.596-3.04,9.586s-4.718,2.985-8.075,2.985h-7.266
			C500.652,338.609,500.293,338.25,500.293,337.53z M503.458,335.876h4.928c2.422,0,4.376-0.792,5.863-2.374
			c1.486-1.583,2.23-4.07,2.23-7.464s-0.744-5.887-2.23-7.481c-1.487-1.595-3.441-2.393-5.863-2.393h-4.928V335.876z"/>
		<path fill="#047A85" d="M527.737,336.487c-1.439-1.559-2.158-3.938-2.158-7.141c0-3.201,0.707-5.629,2.122-7.283
			c1.415-1.655,3.429-2.482,6.043-2.482c5.083,0,7.626,3.13,7.626,9.389c0,0.216-0.145,0.516-0.432,0.899
			c-0.288,0.384-0.54,0.575-0.756,0.575h-11.366c0.144,1.99,0.659,3.453,1.547,4.389c0.887,0.935,2.218,1.402,3.992,1.402
			c1.631,0,3.13-0.383,4.496-1.151c0.455-0.239,0.707-0.359,0.756-0.359c0.239,0,0.509,0.24,0.809,0.72s0.45,0.84,0.45,1.079
			c0,0.479-0.653,0.983-1.961,1.511c-1.307,0.527-2.812,0.791-4.514,0.791C531.394,338.825,529.176,338.046,527.737,336.487z
			 M538.168,327.854c0-3.789-1.438-5.684-4.316-5.684c-3.093,0-4.771,1.895-5.035,5.684H538.168z"/>
		<path fill="#047A85" d="M550.902,345.3c0,0.527-0.48,0.791-1.439,0.791h-0.144c-0.959,0-1.438-0.264-1.438-0.791v-20.035
			c0-1.463-0.061-2.506-0.181-3.13c-0.168-0.863-0.251-1.33-0.251-1.402c0-0.288,0.228-0.497,0.683-0.63
			c0.456-0.131,0.81-0.197,1.062-0.197s0.426,0.024,0.521,0.071c0.096,0.049,0.186,0.126,0.27,0.234
			c0.084,0.107,0.149,0.216,0.198,0.323c0.048,0.108,0.096,0.252,0.144,0.432c0.048,0.181,0.09,0.324,0.126,0.432
			c0.036,0.108,0.072,0.265,0.108,0.468c0.036,0.204,0.065,0.342,0.09,0.414c1.727-1.799,3.645-2.698,5.755-2.698
			s3.795,0.888,5.054,2.662s1.889,4.053,1.889,6.834v0.324c0,2.949-0.672,5.258-2.015,6.924c-1.343,1.667-3.021,2.5-5.035,2.5
			c-2.015,0-3.813-0.611-5.396-1.834V345.3z M555.254,336.163h0.216c1.535-0.023,2.704-0.611,3.508-1.762
			c0.803-1.151,1.205-2.842,1.205-5.072s-0.385-3.975-1.151-5.233c-0.768-1.259-1.937-1.889-3.507-1.889
			c-1.571,0-3.111,0.827-4.622,2.482v9.855C552.197,335.624,553.647,336.163,555.254,336.163z"/>
		<path fill="#047A85" d="M570.146,333.861v-21.51c0-0.527,0.479-0.792,1.439-0.792h0.144c0.959,0,1.438,0.265,1.438,0.792v21.222
			c0,1.775,0.647,2.662,1.942,2.662c0.408,0,0.756-0.029,1.043-0.09c0.288-0.06,0.456-0.09,0.504-0.09
			c0.216,0,0.396,0.222,0.54,0.665c0.144,0.444,0.216,0.786,0.216,1.025c0,0.72-0.876,1.079-2.626,1.079
			c-1.199,0-2.272-0.365-3.22-1.097S570.146,335.708,570.146,333.861z"/>
		<path fill="#047A85" d="M589.982,338.825c-2.698,0-4.761-0.815-6.188-2.446c-1.427-1.63-2.14-3.998-2.14-7.104
			s0.719-5.497,2.158-7.176c1.438-1.679,3.489-2.519,6.15-2.519c2.662,0,4.694,0.834,6.097,2.5c1.403,1.667,2.104,4.064,2.104,7.194
			c0,3.129-0.689,5.503-2.068,7.122C594.718,338.016,592.68,338.825,589.982,338.825z M586.043,334.526
			c0.815,1.14,2.099,1.709,3.85,1.709c1.75,0,3.045-0.569,3.885-1.709c0.839-1.139,1.259-2.907,1.259-5.305
			c0-2.398-0.42-4.173-1.259-5.324c-0.84-1.15-2.135-1.727-3.885-1.727c-1.751,0-3.034,0.57-3.85,1.709s-1.223,2.913-1.223,5.323
			S585.228,333.388,586.043,334.526z"/>
		<path fill="#047A85" d="M602.59,320.337c0-0.407,0.516-0.611,1.547-0.611h0.287c0.792,0,1.271,0.191,1.439,0.575l4.892,12.985
			l4.784-12.985c0.12-0.384,0.653-0.575,1.601-0.575s1.421,0.204,1.421,0.611c0,0.12-0.036,0.287-0.108,0.503l-9.244,24.496
			c-0.192,0.503-0.755,0.755-1.69,0.755h-0.539c-0.792,0-1.188-0.192-1.188-0.575c0-0.072,1.066-2.71,3.201-7.913l-6.295-16.798
			C602.626,320.589,602.59,320.433,602.59,320.337z"/>
		<path fill="#047A85" d="M624.1,337.89v-12.625c0-1.463-0.061-2.506-0.18-3.13c-0.168-0.863-0.252-1.33-0.252-1.402
			c0-0.288,0.228-0.497,0.684-0.63c0.455-0.131,0.809-0.197,1.061-0.197s0.426,0.024,0.521,0.071
			c0.096,0.049,0.186,0.126,0.271,0.234c0.083,0.107,0.149,0.216,0.197,0.323c0.048,0.108,0.096,0.252,0.144,0.432
			c0.048,0.181,0.091,0.324,0.126,0.432c0.036,0.108,0.072,0.265,0.108,0.468c0.036,0.204,0.065,0.342,0.09,0.414
			c1.559-1.799,3.381-2.698,5.468-2.698c2.613,0,4.328,0.996,5.144,2.985c1.678-1.989,3.584-2.985,5.719-2.985
			c1.367,0,2.59,0.349,3.669,1.043c0.6,0.408,1.079,1.02,1.439,1.835c0.359,0.815,0.539,1.799,0.539,2.949v12.481
			c0,0.528-0.479,0.792-1.438,0.792h-0.145c-0.959,0-1.438-0.264-1.438-0.792v-12.193c0-1.079-0.294-1.93-0.881-2.554
			c-0.588-0.623-1.445-0.936-2.572-0.936c-1.487,0-2.962,0.827-4.424,2.482c0.023,0.168,0.035,0.419,0.035,0.755v12.445
			c0,0.528-0.479,0.792-1.438,0.792h-0.144c-0.96,0-1.439-0.264-1.439-0.792v-12.193c0-1.079-0.294-1.93-0.881-2.554
			c-0.588-0.623-1.355-0.936-2.302-0.936c-0.948,0-1.787,0.204-2.519,0.611c-0.731,0.408-1.265,0.827-1.601,1.259l-0.539,0.612v13.2
			c0,0.528-0.48,0.792-1.439,0.792h-0.144C624.579,338.682,624.1,338.418,624.1,337.89z"/>
		<path fill="#047A85" d="M657.479,336.487c-1.439-1.559-2.158-3.938-2.158-7.141c0-3.201,0.707-5.629,2.122-7.283
			c1.415-1.655,3.429-2.482,6.043-2.482c5.083,0,7.626,3.13,7.626,9.389c0,0.216-0.145,0.516-0.432,0.899
			c-0.288,0.384-0.54,0.575-0.756,0.575h-11.366c0.144,1.99,0.659,3.453,1.547,4.389c0.887,0.935,2.218,1.402,3.992,1.402
			c1.631,0,3.13-0.383,4.496-1.151c0.455-0.239,0.707-0.359,0.756-0.359c0.239,0,0.509,0.24,0.809,0.72s0.45,0.84,0.45,1.079
			c0,0.479-0.653,0.983-1.961,1.511c-1.307,0.527-2.812,0.791-4.514,0.791C661.135,338.825,658.917,338.046,657.479,336.487z
			 M667.909,327.854c0-3.789-1.438-5.684-4.316-5.684c-3.093,0-4.771,1.895-5.035,5.684H667.909z"/>
		<path fill="#047A85" d="M677.622,337.89v-12.625c0-1.463-0.061-2.506-0.181-3.13c-0.168-0.863-0.251-1.33-0.251-1.402
			c0-0.288,0.228-0.497,0.683-0.63c0.456-0.131,0.81-0.197,1.062-0.197s0.426,0.024,0.521,0.071c0.096,0.049,0.186,0.126,0.27,0.234
			c0.084,0.107,0.149,0.216,0.198,0.323c0.048,0.108,0.096,0.252,0.144,0.432c0.048,0.181,0.09,0.324,0.126,0.432
			c0.036,0.108,0.072,0.265,0.108,0.468c0.036,0.204,0.065,0.342,0.09,0.414c1.606-1.799,3.399-2.698,5.377-2.698
			c1.979,0,3.489,0.517,4.532,1.547c1.043,1.031,1.565,2.458,1.565,4.28v12.481c0,0.528-0.48,0.792-1.439,0.792h-0.144
			c-0.959,0-1.438-0.264-1.438-0.792v-12.193c0-1.103-0.318-1.96-0.953-2.572c-0.636-0.611-1.542-0.917-2.716-0.917
			c-1.727,0-3.237,0.84-4.532,2.518v13.165c0,0.528-0.48,0.792-1.439,0.792h-0.144C678.102,338.682,677.622,338.418,677.622,337.89z
			"/>
		<path fill="#047A85" d="M700.21,333.861v-11.475h-1.799c-0.479,0-0.719-0.359-0.719-1.079v-0.432c0-0.719,0.239-1.079,0.719-1.079
			h1.799l0.432-3.776c0.048-0.527,0.432-0.792,1.151-0.792h0.359c0.72,0,1.079,0.265,1.079,0.792v3.776h3.021
			c0.479,0,0.72,0.36,0.72,1.079v0.432c0,0.72-0.24,1.079-0.72,1.079h-3.021v11.187c0,1.775,0.647,2.662,1.942,2.662
			c0.407,0,0.756-0.029,1.043-0.09c0.288-0.06,0.455-0.09,0.504-0.09c0.216,0,0.396,0.222,0.539,0.665
			c0.145,0.444,0.216,0.786,0.216,1.025c0,0.72-0.875,1.079-2.625,1.079c-1.2,0-2.272-0.365-3.22-1.097
			S700.21,335.708,700.21,333.861z"/>
		<path fill="#047A85" d="M729.237,337.89v-21.726h-6.906c-0.479,0-0.719-0.359-0.719-1.079v-0.575c0-0.72,0.239-1.079,0.719-1.079
			h16.87c0.479,0,0.72,0.359,0.72,1.079v0.575c0,0.72-0.24,1.079-0.72,1.079h-6.798v21.726c0,0.528-0.48,0.792-1.439,0.792h-0.287
			C729.717,338.682,729.237,338.418,729.237,337.89z"/>
		<path fill="#047A85" d="M752.743,338.825c-2.698,0-4.761-0.815-6.188-2.446c-1.427-1.63-2.14-3.998-2.14-7.104
			s0.719-5.497,2.158-7.176c1.438-1.679,3.489-2.519,6.15-2.519c2.662,0,4.694,0.834,6.097,2.5c1.403,1.667,2.104,4.064,2.104,7.194
			c0,3.129-0.689,5.503-2.068,7.122C757.479,338.016,755.44,338.825,752.743,338.825z M748.804,334.526
			c0.815,1.14,2.099,1.709,3.85,1.709c1.75,0,3.045-0.569,3.885-1.709c0.839-1.139,1.259-2.907,1.259-5.305
			c0-2.398-0.42-4.173-1.259-5.324c-0.84-1.15-2.135-1.727-3.885-1.727c-1.751,0-3.034,0.57-3.85,1.709s-1.223,2.913-1.223,5.323
			S747.988,333.388,748.804,334.526z"/>
		<path fill="#047A85" d="M775.009,338.825c-2.698,0-4.761-0.815-6.188-2.446c-1.427-1.63-2.14-3.998-2.14-7.104
			s0.719-5.497,2.158-7.176c1.438-1.679,3.489-2.519,6.15-2.519c2.662,0,4.694,0.834,6.097,2.5c1.403,1.667,2.104,4.064,2.104,7.194
			c0,3.129-0.689,5.503-2.068,7.122C779.744,338.016,777.706,338.825,775.009,338.825z M771.069,334.526
			c0.815,1.14,2.099,1.709,3.85,1.709c1.75,0,3.045-0.569,3.885-1.709c0.839-1.139,1.259-2.907,1.259-5.305
			c0-2.398-0.42-4.173-1.259-5.324c-0.84-1.15-2.135-1.727-3.885-1.727c-1.751,0-3.034,0.57-3.85,1.709s-1.223,2.913-1.223,5.323
			S770.254,333.388,771.069,334.526z"/>
		<path fill="#047A85" d="M789.917,333.861v-21.51c0-0.527,0.479-0.792,1.439-0.792h0.144c0.959,0,1.438,0.265,1.438,0.792v21.222
			c0,1.775,0.647,2.662,1.942,2.662c0.408,0,0.756-0.029,1.043-0.09c0.288-0.06,0.456-0.09,0.504-0.09
			c0.216,0,0.396,0.222,0.54,0.665c0.144,0.444,0.216,0.786,0.216,1.025c0,0.72-0.876,1.079-2.626,1.079
			c-1.199,0-2.272-0.365-3.22-1.097S789.917,335.708,789.917,333.861z"/>
	</g>
	<path fill="#09525A" d="M178.435,242.407l-0.008-0.007l0.002-0.001l-22.578-22.578l-22.585,22.584
		c-12.47,12.471-12.472,32.689-0.006,45.162l0.006,0.006c0.002-0.001,0.002-0.001,0.002-0.001
		c12.474-12.471,32.694-12.471,45.167,0.001C190.907,275.1,190.908,254.879,178.435,242.407z"/>
	<path fill="#047A85" d="M133.273,287.578l-0.008-0.006c0,0.001,0,0.001,0,0.001c-6.24,6.238-14.41,9.354-22.584,9.357
		c-8.173,0-16.348-3.119-22.584-9.357c-12.472,12.475-12.472,32.698,0,45.169l0.003,0.002v0.004l22.577,22.576l22.422-22.42
		c0.053-0.056,0.113-0.106,0.167-0.162C145.738,320.271,145.739,300.055,133.273,287.578z"/>
	<path fill="#8AB6BA" d="M133.266,242.405c-12.474-12.474-32.695-12.474-45.168-0.002c-0.007,0.008-0.015,0.019-0.024,0.026
		l-22.561,22.561l22.561,22.56c0.009,0.008,0.017,0.018,0.024,0.024c6.236,6.238,14.411,9.357,22.584,9.357
		c8.175-0.003,16.344-3.119,22.583-9.355c0,0,0.002-0.002,0.002-0.003l-0.002-0.001
		C120.794,275.094,120.796,254.876,133.266,242.405z"/>
	<path fill="#C5D1D6" d="M201.009,310.147l-22.576-22.576h-0.001c-12.47-12.471-32.692-12.471-45.162,0c0,0-0.001,0-0.004,0.001
		l0.008,0.006c12.466,12.477,12.464,32.693-0.008,45.164c12.474,12.473,32.695,12.473,45.169,0c0.128-0.128,0.245-0.259,0.368-0.387
		L201.009,310.147z"/>
</g>
</svg>
